<svg width="262" height="89" viewBox="0 0 262 89" fill="none" xmlns="http://www.w3.org/2000/svg">
<path d="M60.661 35.8232C60.1739 35.5425 59.6216 35.3947 59.0594 35.3947C58.4972 35.3947 57.9449 35.5425 57.4578 35.8232L50.1093 40.2008L45.116 43.0559L37.7675 47.4336C37.2804 47.7143 36.7281 47.8621 36.1659 47.8621C35.6037 47.8621 35.0514 47.7143 34.5643 47.4336L28.7232 44.0076C28.2439 43.7214 27.8453 43.3179 27.5651 42.835C27.2849 42.3521 27.1323 41.8059 27.1216 41.2477V34.4908C27.1123 33.9286 27.2565 33.3746 27.5387 32.8882C27.8209 32.4019 28.2304 32.0018 28.7232 31.731L34.4701 28.4001C34.9572 28.1194 35.5095 27.9717 36.0717 27.9717C36.6339 27.9717 37.1862 28.1194 37.6734 28.4001L43.4203 31.731C43.8996 32.0172 44.2981 32.4208 44.5783 32.9036C44.8585 33.3864 45.0111 33.9327 45.0218 34.4908V38.8685L50.015 35.9183V31.5406C50.0243 30.9784 49.8801 30.4243 49.5979 29.938C49.3157 29.4517 48.9062 29.0516 48.4135 28.7807L37.7675 22.4997C37.2804 22.219 36.7281 22.0713 36.1659 22.0713C35.6037 22.0713 35.0514 22.219 34.5643 22.4997L23.7299 28.7808C23.2372 29.0516 22.8277 29.4517 22.5455 29.938C22.2633 30.4243 22.119 30.9784 22.1284 31.5406V44.1979C22.119 44.7601 22.2633 45.3142 22.5455 45.8005C22.8277 46.2868 23.2372 46.6869 23.73 46.9577L34.5643 53.2387C35.0514 53.5195 35.6037 53.6673 36.1659 53.6673C36.7281 53.6673 37.2804 53.5195 37.7675 53.2387L45.1161 48.9562L50.1093 46.0061L57.4579 41.7235C57.945 41.4428 58.4973 41.2951 59.0595 41.2951C59.6216 41.2951 60.174 41.4428 60.6611 41.7235L66.408 45.0544C66.8873 45.3407 67.2858 45.7442 67.566 46.227C67.8462 46.7099 67.9988 47.2561 68.0095 47.8142V54.5712C68.0188 55.1333 67.8746 55.6874 67.5924 56.1737C67.3102 56.66 66.9007 57.0601 66.408 57.331L60.6611 60.7571C60.174 61.0378 59.6216 61.1855 59.0595 61.1855C58.4973 61.1855 57.945 61.0378 57.4579 60.7571L51.7109 57.4262C51.2316 57.14 50.833 56.7364 50.5528 56.2536C50.2726 55.7707 50.12 55.2244 50.1093 54.6663V50.2886L45.1161 53.2387V57.6165C45.1067 58.1787 45.2509 58.7328 45.5332 59.2191C45.8154 59.7054 46.2249 60.1055 46.7176 60.3763L57.552 66.6575C58.0391 66.9382 58.5914 67.0859 59.1536 67.0859C59.7158 67.0859 60.2681 66.9382 60.7552 66.6575L71.5896 60.3763C72.0689 60.0901 72.4674 59.6866 72.7477 59.2038C73.0279 58.7209 73.1805 58.1747 73.1912 57.6165V44.9592C73.2005 44.397 73.0563 43.8429 72.7741 43.3566C72.4918 42.8703 72.0823 42.4702 71.5896 42.1994L60.661 35.8232Z" fill="#7B3FE4"/>
<path d="M93.0861 63.0321V52.524C93.8065 53.2907 94.6873 53.8887 95.6657 54.2754C96.644 54.662 97.6957 54.8277 98.7455 54.7607C104.916 54.7607 109.086 50.414 109.086 43.7885C109.086 37.1629 105.256 32.8162 99.2562 32.8162C98.092 32.7503 96.9284 32.9562 95.8575 33.4176C94.7866 33.8791 93.8378 34.5834 93.0861 35.4749V33.1538H87.1714V63.0321H93.0861ZM98.0222 49.6966C94.8307 49.6966 92.7457 47.3333 92.7457 43.7885C92.7457 40.2014 94.8307 37.8381 98.0222 37.8381C101.128 37.8381 103.256 40.2014 103.256 43.7885C103.256 47.3333 101.129 49.6966 98.0222 49.6966Z" fill="white"/>
<path d="M122.517 54.7613C124.673 54.6942 126.761 53.9937 128.521 52.7472C130.28 51.5007 131.634 49.7634 132.413 47.7523C133.191 45.7411 133.36 43.5452 132.899 41.4386C132.437 39.332 131.365 37.408 129.816 35.907C128.268 34.4059 126.311 33.3942 124.191 32.9982C122.072 32.6022 119.882 32.8394 117.896 33.6801C115.91 34.5209 114.216 35.928 113.024 37.7258C111.833 39.5236 111.198 41.6325 111.198 43.7891C111.17 45.2674 111.446 46.7358 112.009 48.1029C112.572 49.4699 113.411 50.7065 114.472 51.7356C115.534 52.7648 116.796 53.5645 118.18 54.085C119.564 54.6055 121.04 54.8357 122.517 54.7613ZM122.517 49.6972C119.326 49.6972 117.155 47.2918 117.155 43.7891C117.155 40.2442 119.326 37.8388 122.517 37.8388C125.708 37.8388 127.879 40.2442 127.879 43.7891C127.879 47.2918 125.708 49.6972 122.517 49.6972Z" fill="white"/>
<path d="M143.326 54.4234V23.9121H137.412V54.4234H143.326Z" fill="white"/>
<path d="M161.106 33.1538L156.638 46.8691L152.128 33.1538H146.085L153.872 54.2543L150.724 63.032H156.383L159.404 54.3387L167.191 33.1538H161.106Z" fill="white"/>
<path d="M183.803 35.2643C183.059 34.4447 182.143 33.8001 181.12 33.3769C180.097 32.9537 178.993 32.7623 177.888 32.8166C171.632 32.8166 167.845 37.1633 167.845 43.7889C167.845 50.4144 171.632 54.7611 177.973 54.7611C179.078 54.8279 180.183 54.6379 181.202 54.2059C182.22 53.7739 183.125 53.1117 183.845 52.2713V55.0565C183.878 55.4856 183.823 55.9169 183.682 56.3236C183.541 56.7302 183.318 57.1036 183.026 57.4203C182.735 57.737 182.382 57.9903 181.988 58.1645C181.595 58.3386 181.169 58.4299 180.739 58.4326H170.867V63.0325H181.674C186.526 63.0325 189.76 60.1206 189.76 55.6895V33.1542H183.803V35.2643ZM178.909 49.697C175.761 49.697 173.675 47.3759 173.675 43.7889C173.675 40.2018 175.761 37.8385 178.909 37.8385C182.101 37.8385 184.185 40.2018 184.185 43.7889C184.185 47.3759 182.101 49.697 178.909 49.697V49.697Z" fill="white"/>
<path d="M204.671 54.7613C206.826 54.6944 208.915 53.994 210.675 52.7475C212.435 51.5011 213.788 49.7639 214.567 47.7527C215.346 45.7416 215.515 43.5456 215.053 41.439C214.591 39.3323 213.519 37.4083 211.971 35.9072C210.423 34.4061 208.466 33.3943 206.346 32.9983C204.226 32.6022 202.037 32.8393 200.051 33.6801C198.065 34.5208 196.37 35.9279 195.179 37.7258C193.988 39.5236 193.353 41.6324 193.353 43.7891C193.324 45.2673 193.6 46.7356 194.164 48.1026C194.727 49.4696 195.565 50.7061 196.627 51.7352C197.688 52.7643 198.95 53.564 200.334 54.0846C201.718 54.6052 203.194 54.8356 204.671 54.7613ZM204.671 49.6972C201.479 49.6972 199.31 47.2918 199.31 43.7891C199.31 40.2442 201.479 37.8388 204.671 37.8388C207.863 37.8388 210.033 40.2442 210.033 43.7891C210.033 47.2918 207.863 49.6972 204.671 49.6972Z" fill="white"/>
<path d="M225.182 54.4232V42.7758C225.139 42.1693 225.221 41.5605 225.424 40.9875C225.627 40.4145 225.947 39.8896 226.362 39.4458C226.778 39.002 227.281 38.6489 227.839 38.4086C228.397 38.1683 229 38.0459 229.608 38.0493C230.177 38.0434 230.742 38.1564 231.266 38.381C231.79 38.6057 232.261 38.937 232.649 39.354C233.038 39.7709 233.335 40.2643 233.522 40.8026C233.709 41.3409 233.782 41.9123 233.736 42.4803V54.4232H239.694V41.1721C239.694 36.2768 236.544 32.8163 231.694 32.8163C230.414 32.7362 229.135 32.999 227.991 33.5776C226.846 34.1562 225.876 35.0297 225.182 36.108V33.1539H219.226V54.4232H225.182Z" fill="white"/>
</svg>
