<svg width="273" height="97" viewBox="0 0 273 97" fill="none" xmlns="http://www.w3.org/2000/svg">
<path d="M108.1 47.208C108.1 48.048 108.352 48.852 108.856 49.62C109.36 50.388 110.02 51.012 110.836 51.492C111.676 51.972 112.588 52.212 113.572 52.212C114.652 52.212 115.612 51.972 116.452 51.492C117.292 51.012 117.952 50.388 118.432 49.62C118.936 48.852 119.188 48.048 119.188 47.208V30.504H124.336V47.316C124.336 49.26 123.856 50.988 122.896 52.5C121.936 53.988 120.64 55.164 119.008 56.028C117.376 56.868 115.564 57.288 113.572 57.288C111.604 57.288 109.804 56.868 108.172 56.028C106.564 55.164 105.28 53.988 104.32 52.5C103.36 50.988 102.88 49.26 102.88 47.316V30.504H108.1V47.208ZM154.355 58.08L135.815 41.34L135.923 57H130.631V29.46H130.847L149.351 46.452L149.243 30.504H154.499V58.08H154.355ZM161.322 30.504H166.542V57H161.322V30.504ZM187.529 36.912C186.521 36.36 185.489 35.904 184.433 35.544C183.401 35.184 182.429 35.004 181.517 35.004C180.389 35.004 179.501 35.232 178.853 35.688C178.205 36.144 177.881 36.828 177.881 37.74C177.881 38.364 178.121 38.928 178.601 39.432C179.105 39.912 179.741 40.344 180.509 40.728C181.301 41.112 182.117 41.46 182.957 41.772C183.989 42.156 184.985 42.648 185.945 43.248C186.905 43.824 187.697 44.628 188.321 45.66C188.945 46.668 189.257 48.012 189.257 49.692C189.257 51.036 188.909 52.284 188.213 53.436C187.517 54.588 186.497 55.524 185.153 56.244C183.809 56.94 182.153 57.288 180.185 57.288C178.673 57.288 177.125 57.06 175.541 56.604C173.981 56.148 172.505 55.428 171.113 54.444L173.417 50.376C174.329 51.048 175.373 51.6 176.549 52.032C177.725 52.464 178.781 52.68 179.717 52.68C180.341 52.68 180.965 52.596 181.589 52.428C182.237 52.236 182.765 51.924 183.173 51.492C183.605 51.06 183.821 50.46 183.821 49.692C183.821 48.9 183.437 48.216 182.669 47.64C181.925 47.04 181.025 46.536 179.969 46.128C179.153 45.816 178.313 45.456 177.449 45.048C176.585 44.64 175.769 44.148 175.001 43.572C174.257 42.972 173.645 42.24 173.165 41.376C172.709 40.488 172.481 39.408 172.481 38.136C172.481 36.6 172.817 35.268 173.489 34.14C174.185 33.012 175.157 32.124 176.405 31.476C177.653 30.804 179.093 30.432 180.725 30.36C182.861 30.36 184.589 30.612 185.909 31.116C187.253 31.62 188.453 32.22 189.509 32.916L187.529 36.912ZM192.101 30.684H198.221L203.441 46.02L207.473 35.904L205.385 30.684H210.569L216.509 45.408L221.009 30.684H226.625L216.401 58.152L210.101 42.456L202.757 58.224L192.101 30.684ZM224.639 57L236.591 29.46H236.879L248.831 57H242.783L240.731 51.816H231.947L229.787 57H224.639ZM233.783 47.424H239.003L236.447 40.98L233.783 47.424ZM260.721 30.504C264.009 30.504 266.529 31.32 268.281 32.952C270.033 34.56 270.909 36.72 270.909 39.432C270.909 40.512 270.741 41.604 270.405 42.708C270.093 43.788 269.577 44.772 268.857 45.66C268.161 46.548 267.213 47.268 266.013 47.82C264.837 48.348 263.385 48.612 261.657 48.612H257.913V57H252.693V30.504H260.721ZM261.621 43.536C262.677 43.536 263.493 43.308 264.069 42.852C264.669 42.372 265.089 41.82 265.329 41.196C265.569 40.572 265.689 40.032 265.689 39.576C265.689 39.312 265.641 38.964 265.545 38.532C265.473 38.076 265.305 37.62 265.041 37.164C264.777 36.708 264.369 36.324 263.817 36.012C263.289 35.7 262.569 35.544 261.657 35.544H257.913V43.536H261.621Z" fill="white"/>
<g clip-path="url(#clip0_396_117)">
<path d="M26.2037 9.99205C25.0172 9.80522 24.9667 9.78589 25.5284 9.70214C26.6013 9.53464 29.1257 9.76012 30.8675 10.1789C34.9318 11.1581 38.6301 13.6707 42.5807 18.1353L43.6284 19.3208L45.1304 19.0759C51.454 18.0451 57.8786 18.8633 63.2619 21.3824C64.745 22.0781 67.08 23.4568 67.364 23.8112C67.465 23.9271 67.6354 24.6487 67.7427 25.4282C68.1466 28.1212 67.951 30.1763 67.1368 31.7161C66.6951 32.5536 66.6698 32.8177 66.9664 33.5393C67.1083 33.8365 67.329 34.087 67.6034 34.2624C67.8779 34.4379 68.1951 34.5311 68.5189 34.5315C69.8569 34.5315 71.2958 32.341 71.9584 29.2873L72.2235 28.0696L72.7473 28.6752C75.6314 31.9867 77.8908 36.4964 78.2757 39.7048L78.3767 40.5423L77.8971 39.7821C77.1999 38.6177 76.2632 37.6219 75.1518 36.8636C73.2206 35.5687 71.1759 35.1242 65.7737 34.8342C60.8889 34.5765 58.1247 34.1513 55.3858 33.243C50.7219 31.6968 48.3742 29.6481 42.8332 22.2779C40.3719 18.9986 38.8572 17.1883 37.3426 15.7323C33.9031 12.4144 30.5267 10.675 26.2037 9.99849V9.99205Z" fill="white"/>
<path d="M68.4742 17.3048C68.5941 15.1144 68.8844 13.6648 69.4777 12.3441C69.6077 12.0103 69.7705 11.6909 69.9636 11.3906C69.9952 11.3906 69.8942 11.7772 69.7364 12.2475C69.3073 13.536 69.2315 15.2883 69.5345 17.3306C69.9131 19.9205 70.1214 20.2941 72.8162 23.0902C74.0847 24.4044 75.5551 26.0537 76.0916 26.7688L77.0635 28.0573L76.0916 27.136C74.9051 26.0086 72.1788 23.8053 71.5729 23.4896C71.169 23.2834 71.1059 23.2834 70.8598 23.5347C70.6263 23.7666 70.5821 24.1145 70.5442 25.7638C70.5 28.3343 70.1529 29.9836 69.3199 31.6264C68.8718 32.5284 68.8024 32.3351 69.2063 31.3237C69.5092 30.5763 69.5408 30.2413 69.5408 27.7545C69.5408 22.7616 68.9475 21.5569 65.5207 19.5081C64.487 18.8987 63.4256 18.3397 62.3399 17.8331C61.805 17.6136 61.2862 17.3552 60.7874 17.06C60.8821 16.9634 64.2269 17.9555 65.5711 18.4774C67.578 19.2633 67.9062 19.36 68.1523 19.2698C68.3101 19.2053 68.3922 18.7222 68.4679 17.3048H68.4742ZM28.5067 25.854C26.1022 22.491 24.6065 17.3306 24.9346 13.4715L25.0293 12.2797L25.5783 12.3763C26.6134 12.5696 28.3867 13.2396 29.2198 13.755C31.4981 15.1595 32.4889 17.0085 33.4923 21.763C33.789 23.1546 34.1739 24.7266 34.3506 25.2677C34.6346 26.1246 35.7201 28.1282 36.5973 29.4296C37.2284 30.3702 36.8119 30.8147 35.4109 30.6858C33.2715 30.4926 30.3747 28.4632 28.5067 25.854ZM65.5459 50.8959C54.2871 46.3024 50.3238 42.3081 50.3238 35.5757C50.3238 34.5835 50.3553 33.7718 50.3995 33.7718C50.4374 33.7718 50.8728 34.0939 51.3651 34.4998C53.6497 36.3552 56.2056 37.1476 63.2866 38.1978C67.4518 38.8163 69.7869 39.3123 71.9516 40.0403C78.8306 42.3532 83.0779 47.0433 84.0939 53.4407C84.3842 55.2961 84.2201 58.775 83.7342 60.6112C83.3555 62.0607 82.2069 64.6699 81.904 64.773C81.8157 64.8052 81.7336 64.4766 81.7147 64.0257C81.6011 61.6291 80.402 59.2904 78.3951 57.5381C76.1105 55.5474 73.0434 53.9625 65.5459 50.9023V50.8959ZM57.6445 52.8093C57.5123 51.9934 57.331 51.1866 57.1018 50.3934L56.8115 49.5236L57.3479 50.1357C58.0863 50.9732 58.6732 52.0491 59.1655 53.4858C59.5441 54.581 59.582 54.9031 59.582 56.6812C59.582 58.4272 59.5315 58.7944 59.1781 59.7736C58.6931 61.2258 57.8802 62.5412 56.8052 63.6133C54.7478 65.7394 52.1035 66.9119 48.2853 67.4015C47.6227 67.4853 45.6915 67.627 43.9938 67.7172C39.7087 67.9427 36.8877 68.413 34.3569 69.3149C34.1275 69.4178 33.8815 69.4768 33.6312 69.4889C33.5302 69.3858 35.2594 68.3421 36.6794 67.6463C38.6863 66.6606 40.6869 66.1259 45.1677 65.3722C47.3765 64.9985 49.6674 64.5411 50.248 64.3607C55.726 62.6599 58.547 58.2596 57.6445 52.8093Z" fill="white"/>
<path d="M62.8072 62.1118C61.3114 58.852 60.9643 55.7016 61.7848 52.7638C61.8731 52.4417 62.012 52.1904 62.1003 52.1904C62.1824 52.1904 62.5421 52.3837 62.8829 52.6221C63.5771 53.0924 64.9529 53.8848 68.6385 55.9206C73.2329 58.4654 75.8583 60.4304 77.638 62.6852C79.1968 64.6502 80.1624 66.8986 80.6294 69.6302C80.8945 71.1764 80.7367 74.913 80.3454 76.4721C79.1085 81.3942 76.2433 85.2597 72.1411 87.5145C71.5416 87.8431 71.0051 88.1137 70.942 88.1137C70.8852 88.1137 71.1061 87.5532 71.428 86.8638C72.8101 83.939 72.9679 81.0978 71.9265 77.9346C71.2828 75.9954 69.9828 73.631 67.3574 69.6302C64.3029 64.9916 63.5582 63.7482 62.8072 62.1118ZM20.5108 79.7191C24.695 76.1371 29.889 73.5988 34.6285 72.8128C37.0697 72.4932 39.546 72.5912 41.9556 73.1027C44.9849 73.8887 47.6986 75.6539 49.106 77.7477C50.4818 79.8029 51.075 81.5875 51.6935 85.5689C51.9333 87.1344 52.1984 88.7128 52.2741 89.0672C52.7348 91.1288 53.6373 92.778 54.748 93.6027C56.5151 94.9169 59.5696 95.0007 62.5673 93.8153C62.8787 93.6688 63.2076 93.5648 63.5455 93.506C63.6528 93.6156 62.1445 94.6399 61.0843 95.1811C59.8263 95.8639 58.4192 96.2097 56.9947 96.1861C54.2494 96.1861 51.9712 94.7688 50.0653 91.8825C49.3663 90.6605 48.7424 89.3954 48.1972 88.0944C46.1903 83.4493 45.1995 82.0384 42.8707 80.4858C40.8386 79.1329 38.2195 78.8945 36.2505 79.8738C33.663 81.1622 32.9435 84.5123 34.7989 86.6384C35.6657 87.5519 36.7997 88.1533 38.0302 88.3521C38.5189 88.4204 39.0163 88.3807 39.4887 88.2356C39.961 88.0904 40.3973 87.8433 40.7678 87.5108C41.1384 87.1784 41.4345 86.7685 41.6362 86.3089C41.8379 85.8494 41.9403 85.3509 41.9367 84.8473C41.9367 83.4493 41.4066 82.6569 40.0749 82.0384C38.2511 81.2073 36.301 82.1802 36.3073 83.9132C36.3073 84.6541 36.6291 85.1179 37.3612 85.4594C37.8282 85.672 37.8408 85.6849 37.4559 85.6076C35.7898 85.2532 35.3985 83.211 36.7364 81.858C38.352 80.2345 41.6842 80.9496 42.8265 83.1723C43.3062 84.1065 43.363 85.9619 42.9464 87.0829C41.9998 89.5955 39.2734 90.9162 36.4966 90.1946C34.6033 89.705 33.8397 89.1767 31.5614 86.7994C27.6044 82.6633 26.0708 81.858 20.3657 80.9561L19.2676 80.7821L20.5108 79.7191Z" fill="white"/>
<path fill-rule="evenodd" clip-rule="evenodd" d="M1.94364 5.69461C15.1589 21.9683 24.2656 28.6814 25.2754 30.0987C26.1085 31.2713 25.7929 32.3278 24.3666 33.1525C23.3523 33.6727 22.2483 33.9856 21.1165 34.0737C20.1887 34.0737 19.8669 33.713 19.8669 33.713C19.3304 33.1976 19.0275 33.2877 16.2696 28.3206C13.9249 24.5953 11.5519 20.8886 9.1508 17.2009C8.94885 17.0076 8.95516 17.0076 15.8846 29.5898C17.0017 32.2119 16.1055 33.1718 16.1055 33.5454C16.1055 34.3057 15.8973 34.7051 14.9759 35.7552C13.436 37.4947 12.7481 39.4532 12.2495 43.5055C11.6941 48.0475 10.129 51.2558 5.78704 56.7513C3.25002 59.9661 2.83349 60.5523 2.18977 61.8537C1.38196 63.4836 1.16108 64.3985 1.07272 66.4536C0.978059 68.6376 1.16108 70.0421 1.81742 72.123C2.38541 73.9527 2.99127 75.151 4.52484 77.5605C5.85015 79.6414 6.60747 81.1876 6.60747 81.7932C6.60747 82.2699 6.69582 82.2699 8.75321 81.7996C13.6505 80.6786 17.6328 78.7072 19.8732 76.2784C21.2616 74.7773 21.5835 73.9527 21.5961 71.8975C21.6024 70.5575 21.5582 70.274 21.1985 69.5009C20.6179 68.2446 19.5576 67.1945 17.2226 65.571C14.1554 63.445 12.8427 61.7377 12.4893 59.3862C12.1864 57.4535 12.5335 56.0941 14.2248 52.4928C15.9793 48.7561 16.4148 47.1648 16.7114 43.4089C16.9007 40.9801 17.1595 40.0201 17.8474 39.247C18.5668 38.4482 19.2105 38.1776 20.9902 37.9328C23.887 37.5269 25.7235 36.7731 27.2381 35.3558C27.8452 34.8442 28.3351 34.203 28.6731 33.4772C29.0111 32.7515 29.1891 31.9589 29.1945 31.1553L29.2576 29.8024L28.5193 28.9391C25.8623 25.7951 0.163941 3.2207 -0.000145462 3.2207C-0.0317005 3.2207 0.839217 4.33525 1.94364 5.69461ZM8.10318 68.9275C8.39271 68.4055 8.4788 67.7913 8.34427 67.2074C8.20975 66.6234 7.8645 66.1127 7.37741 65.7772C6.43076 65.1329 4.94768 65.4422 4.94768 66.2732C4.94768 66.5309 5.08652 66.7178 5.40207 66.8788C5.93219 67.1559 5.97006 67.4651 5.55353 68.1029C5.1307 68.7407 5.16856 69.3012 5.6482 69.6878C6.42445 70.2998 7.52257 69.9648 8.10318 68.9275ZM31.0815 38.6479C29.7247 39.0667 28.4057 40.5291 27.9891 42.0624C27.743 42.9966 27.8882 44.6394 28.2605 45.1419C28.8664 45.9601 29.447 46.1727 31.031 46.1663C34.1234 46.1469 36.8119 44.8005 37.1275 43.1125C37.3799 41.7338 36.1997 39.8269 34.5715 38.9829C33.4655 38.5245 32.2519 38.408 31.0815 38.6479ZM34.704 41.5148C35.1774 40.8254 34.9691 40.0846 34.155 39.5821C32.6151 38.6221 30.2737 39.4145 30.2737 40.8963C30.2737 41.6372 31.4917 42.4425 32.6088 42.4425C33.3535 42.4425 34.3759 41.9915 34.704 41.5148Z" fill="white"/>
</g>
<defs>
<clipPath id="clip0_396_117">
<rect width="88.354" height="96.6372" fill="white"/>
</clipPath>
</defs>
</svg>
