<svg width="102" height="102" viewBox="0 0 102 102" fill="none" xmlns="http://www.w3.org/2000/svg">
<g opacity="0.3">
<path d="M86.3137 75.259C94.3335 66.555 93.526 55.3775 93.5005 55.25V21.25C93.5005 20.1228 93.0527 19.0418 92.2557 18.2448C91.4586 17.4478 90.3776 17 89.2505 17H63.7505C59.0627 17 55.2505 20.8122 55.2505 25.5V55.25C55.2505 56.3772 55.6982 57.4582 56.4953 58.2552C57.2923 59.0522 58.3733 59.5 59.5005 59.5H72.5819C72.4922 61.6011 71.8644 63.644 70.7587 65.433C68.5997 68.8372 64.5325 71.162 58.6632 72.335L55.2505 73.015V85H59.5005C71.3282 85 80.351 81.7232 86.3137 75.259ZM39.534 75.259C47.558 66.555 46.7462 55.3775 46.7207 55.25V21.25C46.7207 20.1228 46.2729 19.0418 45.4759 18.2448C44.6789 17.4478 43.5979 17 42.4707 17H16.9707C12.283 17 8.4707 20.8122 8.4707 25.5V55.25C8.4707 56.3772 8.91847 57.4582 9.7155 58.2552C10.5125 59.0522 11.5935 59.5 12.7207 59.5H25.8022C25.7124 61.6011 25.0846 63.644 23.979 65.433C21.82 68.8372 17.7527 71.162 11.8835 72.335L8.4707 73.015V85H12.7207C24.5485 85 33.5712 81.7232 39.534 75.259Z" fill="url(#paint0_linear_396_75)"/>
</g>
<defs>
<linearGradient id="paint0_linear_396_75" x1="8.4707" y1="53.6154" x2="93.5342" y2="53.6154" gradientUnits="userSpaceOnUse">
<stop stop-color="#815CC8"/>
<stop offset="1" stop-color="#1BABFE"/>
</linearGradient>
</defs>
</svg>
