<svg width="102" height="102" viewBox="0 0 102 102" fill="none" xmlns="http://www.w3.org/2000/svg">
<g opacity="0.3">
<path d="M15.6861 26.741C21.6489 20.2767 30.6716 17 42.4994 17H46.7494V28.9807L43.3324 29.665C37.5099 30.8295 33.4596 33.1202 31.2921 36.482C30.1612 38.293 29.5198 40.3667 29.4306 42.5H42.4994C43.6265 42.5 44.7076 42.9478 45.5046 43.7448C46.3016 44.5418 46.7494 45.6228 46.7494 46.75V76.5C46.7494 81.1878 42.9371 85 38.2494 85H12.7494C11.6222 85 10.5412 84.5522 9.74418 83.7552C8.94715 82.9582 8.49938 81.8772 8.49938 80.75V59.5L8.51213 47.0943C8.47388 46.6225 7.66638 35.445 15.6861 26.741ZM84.9994 85H59.4994C58.3722 85 57.2912 84.5522 56.4942 83.7552C55.6971 82.9582 55.2494 81.8772 55.2494 80.75V59.5L55.2621 47.0943C55.2239 46.6225 54.4164 35.445 62.4361 26.741C68.3989 20.2767 77.4216 17 89.2494 17H93.4994V28.9807L90.0824 29.665C84.2599 30.8295 80.2096 33.1202 78.0421 36.482C76.9112 38.293 76.2697 40.3667 76.1806 42.5H89.2494C90.3766 42.5 91.4576 42.9478 92.2546 43.7448C93.0516 44.5418 93.4994 45.6228 93.4994 46.75V76.5C93.4994 81.1878 89.6871 85 84.9994 85Z" fill="url(#paint0_linear_396_73)"/>
</g>
<defs>
<linearGradient id="paint0_linear_396_73" x1="8.47266" y1="53.6154" x2="93.4994" y2="53.6154" gradientUnits="userSpaceOnUse">
<stop stop-color="#815CC8"/>
<stop offset="1" stop-color="#1BABFE"/>
</linearGradient>
</defs>
</svg>
