<svg width="20" height="20" viewBox="0 0 20 20" fill="none" xmlns="http://www.w3.org/2000/svg">
<path d="M9.84461 19.9705C15.2315 19.9705 19.5984 15.6035 19.5984 10.2167C19.5984 4.82981 15.2315 0.462891 9.84461 0.462891C4.45774 0.462891 0.0908203 4.82981 0.0908203 10.2167C0.0908203 15.6035 4.45774 19.9705 9.84461 19.9705Z" fill="#8A8A8A"/>
<path d="M16.3499 10.2167C16.3399 9.94217 16.2507 9.67638 16.093 9.45141C15.9353 9.22643 15.7159 9.05187 15.4612 8.94877C15.2066 8.84567 14.9275 8.81844 14.6578 8.87035C14.388 8.92226 14.139 9.0511 13.9407 9.24134C12.8312 8.48709 11.5269 8.0704 10.1855 8.04162L10.8195 4.99844L12.9068 5.43736C12.9317 5.66802 13.0379 5.88229 13.2064 6.04169C13.375 6.2011 13.5948 6.29521 13.8265 6.30713C14.0582 6.31905 14.2865 6.248 14.4706 6.10673C14.6546 5.96546 14.7822 5.76323 14.8306 5.53634C14.8789 5.30944 14.8448 5.07274 14.7344 4.86872C14.624 4.6647 14.4444 4.50673 14.228 4.42315C14.0116 4.33957 13.7725 4.33587 13.5536 4.4127C13.3347 4.48954 13.1503 4.64188 13.0336 4.84238L10.644 4.36445C10.6049 4.35587 10.5645 4.35514 10.5251 4.36229C10.4858 4.36945 10.4482 4.38434 10.4146 4.40611C10.3811 4.42789 10.3521 4.45611 10.3296 4.48914C10.307 4.52217 10.2912 4.55935 10.2831 4.59854L9.56129 7.9831C8.20345 8.00357 6.88122 8.42058 5.75732 9.18282C5.60695 9.04134 5.42763 8.93425 5.23176 8.86897C5.0359 8.80369 4.82818 8.78177 4.623 8.80475C4.41783 8.82772 4.2201 8.89504 4.04353 9.00202C3.86695 9.10901 3.71575 9.25311 3.60041 9.42434C3.48506 9.59557 3.40832 9.78983 3.37552 9.99367C3.34271 10.1975 3.35462 10.406 3.41041 10.6048C3.46621 10.8036 3.56456 10.9879 3.69864 11.1448C3.83273 11.3018 3.99935 11.4278 4.18696 11.514C4.17597 11.6568 4.17597 11.8003 4.18696 11.9431C4.18696 14.128 6.7327 15.9032 9.87342 15.9032C13.0141 15.9032 15.5599 14.128 15.5599 11.9431C15.5709 11.8003 15.5709 11.6568 15.5599 11.514C15.8006 11.3943 16.0025 11.209 16.1423 10.9795C16.2821 10.7499 16.3541 10.4855 16.3499 10.2167ZM6.59614 11.1921C6.59614 10.9992 6.65335 10.8106 6.76052 10.6502C6.8677 10.4898 7.02003 10.3648 7.19826 10.291C7.37649 10.2171 7.5726 10.1978 7.76181 10.2355C7.95101 10.2731 8.12481 10.366 8.26122 10.5024C8.39763 10.6388 8.49052 10.8126 8.52816 11.0018C8.56579 11.191 8.54648 11.3871 8.47265 11.5654C8.39883 11.7436 8.27381 11.8959 8.11341 12.0031C7.95301 12.1103 7.76443 12.1675 7.57152 12.1675C7.44343 12.1675 7.3166 12.1422 7.19826 12.0932C7.07992 12.0442 6.9724 11.9724 6.88182 11.8818C6.79125 11.7912 6.71941 11.6837 6.67039 11.5654C6.62137 11.447 6.59614 11.3202 6.59614 11.1921ZM12.2631 13.8744C11.5711 14.3959 10.7197 14.6613 9.85391 14.6254C8.98815 14.6613 8.13673 14.3959 7.44472 13.8744C7.40325 13.8239 7.38205 13.7597 7.38526 13.6944C7.38846 13.6291 7.41584 13.5673 7.46207 13.5211C7.5083 13.4749 7.57007 13.4475 7.63537 13.4443C7.70067 13.4411 7.76483 13.4623 7.81537 13.5037C8.40179 13.9339 9.11761 14.1507 9.84415 14.1182C10.5716 14.1578 11.2907 13.9479 11.8827 13.5233C11.9344 13.4728 12.0041 13.445 12.0763 13.4459C12.1121 13.4464 12.1475 13.4538 12.1803 13.468C12.2132 13.4821 12.243 13.5025 12.268 13.5281C12.2929 13.5537 12.3126 13.584 12.3259 13.6173C12.3392 13.6505 12.3458 13.686 12.3453 13.7218C12.3449 13.7576 12.3374 13.7929 12.3233 13.8258C12.3092 13.8586 12.2887 13.8884 12.2631 13.9134V13.8744ZM12.0875 12.2065C11.8946 12.2065 11.706 12.1493 11.5456 12.0421C11.3852 11.9349 11.2602 11.7826 11.1864 11.6044C11.1126 11.4261 11.0933 11.23 11.1309 11.0408C11.1685 10.8516 11.2614 10.6778 11.3978 10.5414C11.5342 10.405 11.708 10.3121 11.8972 10.2745C12.0864 10.2368 12.2826 10.2562 12.4608 10.33C12.639 10.4038 12.7913 10.5288 12.8985 10.6892C13.0057 10.8496 13.0629 11.0382 13.0629 11.2311C13.0682 11.3633 13.0466 11.4951 12.9993 11.6187C12.9521 11.7422 12.8802 11.8548 12.788 11.9497C12.6959 12.0446 12.5854 12.1198 12.4633 12.1706C12.3412 12.2215 12.21 12.2469 12.0778 12.2455L12.0875 12.2065Z" fill="#3C3C3C"/>
</svg>

