<svg width="33" height="32" viewBox="0 0 33 32" fill="none" xmlns="http://www.w3.org/2000/svg">
<rect x="1.23878" y="0.390152" width="30.4318" height="30.4318" fill="url(#paint0_linear_396_162)" stroke="url(#paint1_linear_396_162)" stroke-width="0.780303"/>
<path d="M16.8446 24.9705C22.2315 24.9705 26.5984 20.6035 26.5984 15.2167C26.5984 9.82981 22.2315 5.46289 16.8446 5.46289C11.4577 5.46289 7.09082 9.82981 7.09082 15.2167C7.09082 20.6035 11.4577 24.9705 16.8446 24.9705Z" fill="#8A8A8A"/>
<path d="M23.3499 15.2167C23.3399 14.9422 23.2507 14.6764 23.093 14.4514C22.9353 14.2264 22.7159 14.0519 22.4612 13.9488C22.2066 13.8457 21.9275 13.8184 21.6578 13.8703C21.388 13.9223 21.139 14.0511 20.9407 14.2413C19.8312 13.4871 18.5269 13.0704 17.1855 13.0416L17.8195 9.99844L19.9068 10.4374C19.9317 10.668 20.0379 10.8823 20.2064 11.0417C20.375 11.2011 20.5948 11.2952 20.8265 11.3071C21.0582 11.319 21.2865 11.248 21.4706 11.1067C21.6546 10.9655 21.7822 10.7632 21.8306 10.5363C21.8789 10.3094 21.8448 10.0727 21.7344 9.86872C21.624 9.6647 21.4444 9.50673 21.228 9.42315C21.0116 9.33957 20.7725 9.33587 20.5536 9.4127C20.3347 9.48954 20.1503 9.64188 20.0336 9.84238L17.644 9.36445C17.6049 9.35587 17.5645 9.35514 17.5251 9.36229C17.4858 9.36945 17.4482 9.38434 17.4146 9.40611C17.3811 9.42789 17.3521 9.45611 17.3296 9.48914C17.307 9.52217 17.2912 9.55935 17.2831 9.59854L16.5613 12.9831C15.2035 13.0036 13.8812 13.4206 12.7573 14.1828C12.607 14.0413 12.4276 13.9342 12.2318 13.869C12.0359 13.8037 11.8282 13.7818 11.623 13.8047C11.4178 13.8277 11.2201 13.895 11.0435 14.002C10.867 14.109 10.7158 14.2531 10.6004 14.4243C10.4851 14.5956 10.4083 14.7898 10.3755 14.9937C10.3427 15.1975 10.3546 15.406 10.4104 15.6048C10.4662 15.8036 10.5646 15.9879 10.6986 16.1448C10.8327 16.3018 10.9994 16.4278 11.187 16.514C11.176 16.6568 11.176 16.8003 11.187 16.9431C11.187 19.128 13.7327 20.9032 16.8734 20.9032C20.0141 20.9032 22.5599 19.128 22.5599 16.9431C22.5709 16.8003 22.5709 16.6568 22.5599 16.514C22.8006 16.3943 23.0025 16.209 23.1423 15.9795C23.2821 15.7499 23.3541 15.4855 23.3499 15.2167ZM13.5961 16.1921C13.5961 15.9992 13.6533 15.8106 13.7605 15.6502C13.8677 15.4898 14.02 15.3648 14.1983 15.291C14.3765 15.2171 14.5726 15.1978 14.7618 15.2355C14.951 15.2731 15.1248 15.366 15.2612 15.5024C15.3976 15.6388 15.4905 15.8126 15.5282 16.0018C15.5658 16.191 15.5465 16.3871 15.4727 16.5654C15.3988 16.7436 15.2738 16.8959 15.1134 17.0031C14.953 17.1103 14.7644 17.1675 14.5715 17.1675C14.4434 17.1675 14.3166 17.1422 14.1983 17.0932C14.0799 17.0442 13.9724 16.9724 13.8818 16.8818C13.7913 16.7912 13.7194 16.6837 13.6704 16.5654C13.6214 16.447 13.5961 16.3202 13.5961 16.1921ZM19.2631 18.8744C18.5711 19.3959 17.7197 19.6613 16.8539 19.6254C15.9881 19.6613 15.1367 19.3959 14.4447 18.8744C14.4032 18.8239 14.3821 18.7597 14.3853 18.6944C14.3885 18.6291 14.4158 18.5673 14.4621 18.5211C14.5083 18.4749 14.5701 18.4475 14.6354 18.4443C14.7007 18.4411 14.7648 18.4623 14.8154 18.5037C15.4018 18.9339 16.1176 19.1507 16.8442 19.1182C17.5716 19.1578 18.2907 18.9479 18.8827 18.5233C18.9344 18.4728 19.0041 18.445 19.0763 18.4459C19.1121 18.4464 19.1475 18.4538 19.1803 18.468C19.2132 18.4821 19.243 18.5025 19.268 18.5281C19.2929 18.5537 19.3126 18.584 19.3259 18.6173C19.3392 18.6505 19.3458 18.686 19.3453 18.7218C19.3449 18.7576 19.3374 18.7929 19.3233 18.8258C19.3092 18.8586 19.2887 18.8884 19.2631 18.9134V18.8744ZM19.0875 17.2065C18.8946 17.2065 18.706 17.1493 18.5456 17.0421C18.3852 16.9349 18.2602 16.7826 18.1864 16.6044C18.1126 16.4261 18.0933 16.23 18.1309 16.0408C18.1685 15.8516 18.2614 15.6778 18.3978 15.5414C18.5342 15.405 18.708 15.3121 18.8972 15.2745C19.0864 15.2368 19.2826 15.2562 19.4608 15.33C19.639 15.4038 19.7913 15.5288 19.8985 15.6892C20.0057 15.8496 20.0629 16.0382 20.0629 16.2311C20.0682 16.3633 20.0466 16.4951 19.9993 16.6187C19.9521 16.7422 19.8802 16.8548 19.788 16.9497C19.6959 17.0446 19.5854 17.1198 19.4633 17.1706C19.3412 17.2215 19.21 17.2469 19.0778 17.2455L19.0875 17.2065Z" fill="#3C3C3C"/>
<defs>
<linearGradient id="paint0_linear_396_162" x1="0.848632" y1="0.0149269" x2="38.4737" y2="14.2663" gradientUnits="userSpaceOnUse">
<stop stop-color="white" stop-opacity="0.1"/>
<stop offset="1" stop-color="white" stop-opacity="0.03"/>
</linearGradient>
<linearGradient id="paint1_linear_396_162" x1="1.49888" y1="0.655556" x2="36.8441" y2="18.2506" gradientUnits="userSpaceOnUse">
<stop stop-color="white" stop-opacity="0.2"/>
<stop offset="1" stop-color="white" stop-opacity="0.1"/>
</linearGradient>
</defs>
</svg>
