<svg width="18" height="21" viewBox="0 0 18 21" fill="none" xmlns="http://www.w3.org/2000/svg">
<path d="M15.77 0.461914C16.9321 0.461914 17.8695 1.40171 17.9248 2.50764V20.2992L15.7121 18.4205L14.4971 17.3146L13.1713 16.159L13.7251 17.9816H2.12191C0.963081 17.9816 0.0224609 17.1013 0.0224609 15.935V2.51177C0.0224609 1.40584 0.964735 0.464394 2.12605 0.464394H15.7642L15.77 0.461914ZM10.7131 5.15923H10.6883L10.5214 5.32454C12.2348 5.82047 13.0639 6.59496 13.0639 6.59496C11.9596 6.04282 10.9644 5.76675 9.96923 5.65516C9.25013 5.54358 8.53103 5.60226 7.92351 5.65516H7.7582C7.36972 5.65516 6.54316 5.82047 5.43557 6.26268C5.04957 6.43047 4.82806 6.5404 4.82806 6.5404C4.82806 6.5404 5.65626 5.71219 7.4813 5.26999L7.36971 5.1584C7.36971 5.1584 5.98771 5.1055 4.49578 6.20813C4.49578 6.20813 3.00385 8.80682 3.00385 12.0105C3.00385 12.0105 3.8304 13.4488 6.09765 13.5033C6.09765 13.5033 6.42827 13.0628 6.76302 12.6751C5.49013 12.2883 4.99419 11.5146 4.99419 11.5146C4.99419 11.5146 5.10495 11.5692 5.27109 11.6799H5.32068C5.34548 11.6799 5.35705 11.6923 5.37028 11.7047V11.7097C5.3835 11.7229 5.39507 11.7345 5.41987 11.7345C5.69263 11.8469 5.9654 11.9576 6.18857 12.0651C6.57374 12.2321 7.06885 12.3982 7.67637 12.5081C8.44506 12.6197 9.32617 12.6734 10.3296 12.5081C10.8255 12.3966 11.3215 12.2874 11.8174 12.0659C12.1398 11.9006 12.5365 11.7353 12.9721 11.4568C12.9721 11.4568 12.4762 12.2304 11.1496 12.6172C11.4223 13.0024 11.8067 13.4438 11.8067 13.4438C14.0747 13.3942 14.9558 11.956 15.0054 12.0172C15.0054 8.81839 13.5052 6.21474 13.5052 6.21474C12.1538 5.2113 10.8892 5.17328 10.666 5.17328L10.7123 5.15675L10.7131 5.15923ZM10.852 8.80682C11.4331 8.80682 11.9017 9.30275 11.9017 9.91027C11.9017 10.5219 11.4306 11.0179 10.852 11.0179C10.2734 11.0179 9.80227 10.5219 9.80227 9.91523C9.80392 9.30358 10.2759 8.8093 10.852 8.8093V8.80682ZM7.09695 8.80682C7.67554 8.80682 8.14337 9.30275 8.14337 9.91027C8.14337 10.5219 7.67223 11.0179 7.09365 11.0179C6.51506 11.0179 6.04392 10.5219 6.04392 9.91523C6.04392 9.30358 6.51506 8.8093 7.09365 8.8093L7.09695 8.80682Z" fill="#8A8A8A"/>
</svg>
