<svg width="32" height="32" viewBox="0 0 32 32" fill="none" xmlns="http://www.w3.org/2000/svg">
<rect x="0.390152" y="0.390152" width="30.4318" height="30.4318" fill="url(#paint0_linear_396_159)" stroke="url(#paint1_linear_396_159)" stroke-width="0.780303"/>
<path d="M22.77 5.46191C23.9321 5.46191 24.8695 6.40171 24.9248 7.50764V25.2992L22.7121 23.4205L21.4971 22.3146L20.1713 21.159L20.7251 22.9816H9.12191C7.96308 22.9816 7.02246 22.1013 7.02246 20.935V7.51177C7.02246 6.40584 7.96473 5.46439 9.12605 5.46439H22.7642L22.77 5.46191ZM17.7131 10.1592H17.6883L17.5214 10.3245C19.2348 10.8205 20.0639 11.595 20.0639 11.595C18.9596 11.0428 17.9644 10.7667 16.9692 10.6552C16.2501 10.5436 15.531 10.6023 14.9235 10.6552H14.7582C14.3697 10.6552 13.5432 10.8205 12.4356 11.2627C12.0496 11.4305 11.8281 11.5404 11.8281 11.5404C11.8281 11.5404 12.6563 10.7122 14.4813 10.27L14.3697 10.1584C14.3697 10.1584 12.9877 10.1055 11.4958 11.2081C11.4958 11.2081 10.0038 13.8068 10.0038 17.0105C10.0038 17.0105 10.8304 18.4488 13.0976 18.5033C13.0976 18.5033 13.4283 18.0628 13.763 17.6751C12.4901 17.2883 11.9942 16.5146 11.9942 16.5146C11.9942 16.5146 12.105 16.5692 12.2711 16.6799H12.3207C12.3455 16.6799 12.3571 16.6923 12.3703 16.7047V16.7097C12.3835 16.7229 12.3951 16.7345 12.4199 16.7345C12.6926 16.8469 12.9654 16.9576 13.1886 17.0651C13.5737 17.2321 14.0688 17.3982 14.6764 17.5081C15.4451 17.6197 16.3262 17.6734 17.3296 17.5081C17.8255 17.3966 18.3215 17.2874 18.8174 17.0659C19.1398 16.9006 19.5365 16.7353 19.9721 16.4568C19.9721 16.4568 19.4762 17.2304 18.1496 17.6172C18.4223 18.0024 18.8067 18.4438 18.8067 18.4438C21.0747 18.3942 21.9558 16.956 22.0054 17.0172C22.0054 13.8184 20.5052 11.2147 20.5052 11.2147C19.1538 10.2113 17.8892 10.1733 17.666 10.1733L17.7123 10.1567L17.7131 10.1592ZM17.852 13.8068C18.4331 13.8068 18.9017 14.3028 18.9017 14.9103C18.9017 15.5219 18.4306 16.0179 17.852 16.0179C17.2734 16.0179 16.8023 15.5219 16.8023 14.9152C16.8039 14.3036 17.2759 13.8093 17.852 13.8093V13.8068ZM14.097 13.8068C14.6755 13.8068 15.1434 14.3028 15.1434 14.9103C15.1434 15.5219 14.6722 16.0179 14.0936 16.0179C13.5151 16.0179 13.0439 15.5219 13.0439 14.9152C13.0439 14.3036 13.5151 13.8093 14.0936 13.8093L14.097 13.8068Z" fill="#8A8A8A"/>
<defs>
<linearGradient id="paint0_linear_396_159" x1="-6.37798e-07" y1="0.0149269" x2="37.6251" y2="14.2663" gradientUnits="userSpaceOnUse">
<stop stop-color="white" stop-opacity="0.1"/>
<stop offset="1" stop-color="white" stop-opacity="0.03"/>
</linearGradient>
<linearGradient id="paint1_linear_396_159" x1="0.650251" y1="0.655556" x2="35.9954" y2="18.2506" gradientUnits="userSpaceOnUse">
<stop stop-color="white" stop-opacity="0.2"/>
<stop offset="1" stop-color="white" stop-opacity="0.1"/>
</linearGradient>
</defs>
</svg>
