<svg width="21" height="20" viewBox="0 0 21 20" fill="none" xmlns="http://www.w3.org/2000/svg">
<path fill-rule="evenodd" clip-rule="evenodd" d="M10.523 0.461914C4.99768 0.461914 0.522461 4.93714 0.522461 10.4624C0.522461 14.8876 3.3851 18.6253 7.3603 19.9504C7.86033 20.0379 8.04784 19.7379 8.04784 19.4754C8.04784 19.2379 8.03534 18.4503 8.03534 17.6128C5.52271 18.0753 4.87268 17.0002 4.67267 16.4377C4.56016 16.1502 4.07264 15.2627 3.64762 15.0251C3.2976 14.8376 2.79757 14.3751 3.63512 14.3626C4.42266 14.3501 4.98518 15.0876 5.17269 15.3877C6.07274 16.9002 7.51031 16.4752 8.08534 16.2127C8.17284 15.5627 8.43536 15.1251 8.72287 14.8751C6.49776 14.6251 4.17264 13.7626 4.17264 9.93739C4.17264 8.84983 4.56016 7.94979 5.19769 7.24975C5.09769 6.99974 4.74767 5.97469 5.2977 4.59962C5.2977 4.59962 6.13524 4.33711 8.04784 5.62467C8.84788 5.39966 9.69792 5.28715 10.548 5.28715C11.398 5.28715 12.248 5.39966 13.0481 5.62467C14.9607 4.32461 15.7982 4.59962 15.7982 4.59962C16.3483 5.97469 15.9982 6.99974 15.8982 7.24975C16.5358 7.94979 16.9233 8.83733 16.9233 9.93739C16.9233 13.7751 14.5857 14.6251 12.3606 14.8751C12.7231 15.1876 13.0356 15.7877 13.0356 16.7252C13.0356 18.0628 13.0231 19.1378 13.0231 19.4754C13.0231 19.7379 13.2106 20.0504 13.7106 19.9504C15.6959 19.2802 17.421 18.0043 18.6432 16.3022C19.8653 14.6002 20.5229 12.5578 20.5235 10.4624C20.5235 4.93714 16.0482 0.461914 10.523 0.461914Z" fill="#8A8A8A"/>
</svg>
 
