<svg width="32" height="32" viewBox="0 0 32 32" fill="none" xmlns="http://www.w3.org/2000/svg">
<rect x="0.450698" y="0.390152" width="30.4318" height="30.4318" fill="url(#paint0_linear_396_167)" stroke="url(#paint1_linear_396_167)" stroke-width="0.780303"/>
<path fill-rule="evenodd" clip-rule="evenodd" d="M15.523 5.46191C9.99768 5.46191 5.52246 9.93714 5.52246 15.4624C5.52246 19.8876 8.3851 23.6253 12.3603 24.9504C12.8603 25.0379 13.0478 24.7379 13.0478 24.4754C13.0478 24.2379 13.0353 23.4503 13.0353 22.6128C10.5227 23.0753 9.87268 22.0002 9.67267 21.4377C9.56016 21.1502 9.07264 20.2627 8.64762 20.0251C8.2976 19.8376 7.79757 19.3751 8.63512 19.3626C9.42266 19.3501 9.98518 20.0876 10.1727 20.3877C11.0727 21.9002 12.5103 21.4752 13.0853 21.2127C13.1728 20.5627 13.4354 20.1251 13.7229 19.8751C11.4978 19.6251 9.17264 18.7626 9.17264 14.9374C9.17264 13.8498 9.56016 12.9498 10.1977 12.2498C10.0977 11.9997 9.74767 10.9747 10.2977 9.59962C10.2977 9.59962 11.1352 9.33711 13.0478 10.6247C13.8479 10.3997 14.6979 10.2872 15.548 10.2872C16.398 10.2872 17.248 10.3997 18.0481 10.6247C19.9607 9.32461 20.7982 9.59962 20.7982 9.59962C21.3483 10.9747 20.9982 11.9997 20.8982 12.2498C21.5358 12.9498 21.9233 13.8373 21.9233 14.9374C21.9233 18.7751 19.5857 19.6251 17.3606 19.8751C17.7231 20.1876 18.0356 20.7877 18.0356 21.7252C18.0356 23.0628 18.0231 24.1378 18.0231 24.4754C18.0231 24.7379 18.2106 25.0504 18.7106 24.9504C20.6959 24.2802 22.421 23.0043 23.6432 21.3022C24.8653 19.6002 25.5229 17.5578 25.5235 15.4624C25.5235 9.93714 21.0482 5.46191 15.523 5.46191Z" fill="#8A8A8A"/>
<defs>
<linearGradient id="paint0_linear_396_167" x1="0.0605462" y1="0.0149269" x2="37.6856" y2="14.2663" gradientUnits="userSpaceOnUse">
<stop stop-color="white" stop-opacity="0.1"/>
<stop offset="1" stop-color="white" stop-opacity="0.03"/>
</linearGradient>
<linearGradient id="paint1_linear_396_167" x1="0.710798" y1="0.655556" x2="36.056" y2="18.2506" gradientUnits="userSpaceOnUse">
<stop stop-color="white" stop-opacity="0.2"/>
<stop offset="1" stop-color="white" stop-opacity="0.1"/>
</linearGradient>
</defs>
</svg>
