<svg width="32" height="32" viewBox="0 0 32 32" fill="none" xmlns="http://www.w3.org/2000/svg">
<rect x="0.81398" y="0.390152" width="30.4318" height="30.4318" fill="url(#paint0_linear_396_156)" stroke="url(#paint1_linear_396_156)" stroke-width="0.780303"/>
<path d="M5.93205 13.8599C12.2027 11.1069 16.3841 9.29202 18.4763 8.41514C24.4499 5.91148 25.6911 5.47657 26.5002 5.46205C26.6781 5.45905 27.076 5.50348 27.3337 5.71421C27.5513 5.89214 27.6112 6.13249 27.6398 6.30119C27.6685 6.46989 27.7042 6.85418 27.6758 7.15446C27.3521 10.5818 25.9514 18.899 25.2388 22.7376C24.9373 24.3619 24.3436 24.9065 23.7688 24.9598C22.5196 25.0757 21.5711 24.128 20.3613 23.3288C18.4681 22.0783 17.3986 21.2999 15.5609 20.0796C13.4372 18.6694 14.8139 17.8943 16.0242 16.6276C16.341 16.2961 21.8447 11.2517 21.9512 10.7941C21.9645 10.7369 21.9769 10.5235 21.8511 10.4109C21.7253 10.2982 21.5397 10.3368 21.4058 10.3674C21.2159 10.4108 18.1915 12.4251 12.3327 16.4103C11.4742 17.0043 10.6966 17.2937 9.99997 17.2786C9.23194 17.2619 7.75458 16.841 6.6563 16.4813C5.30923 16.04 4.2386 15.8067 4.33183 15.0574C4.38039 14.6671 4.9138 14.2679 5.93205 13.8599Z" fill="#8A8A8A"/>
<defs>
<linearGradient id="paint0_linear_396_156" x1="0.423827" y1="0.0149269" x2="38.0489" y2="14.2663" gradientUnits="userSpaceOnUse">
<stop stop-color="white" stop-opacity="0.1"/>
<stop offset="1" stop-color="white" stop-opacity="0.03"/>
</linearGradient>
<linearGradient id="paint1_linear_396_156" x1="1.07408" y1="0.655556" x2="36.4193" y2="18.2506" gradientUnits="userSpaceOnUse">
<stop stop-color="white" stop-opacity="0.2"/>
<stop offset="1" stop-color="white" stop-opacity="0.1"/>
</linearGradient>
</defs>
</svg>
