<svg width="24" height="20" viewBox="0 0 24 20" fill="none" xmlns="http://www.w3.org/2000/svg">
<path d="M1.93205 8.85988C8.20269 6.10693 12.3841 4.29202 14.4763 3.41514C20.4499 0.911479 21.6911 0.476567 22.5002 0.462053C22.6781 0.459048 23.076 0.503484 23.3337 0.714206C23.5513 0.892136 23.6112 1.13249 23.6398 1.30119C23.6685 1.46989 23.7042 1.85418 23.6758 2.15446C23.3521 5.58178 21.9514 13.899 21.2388 17.7376C20.9373 19.3619 20.3436 19.9065 19.7688 19.9598C18.5196 20.0757 17.5711 19.128 16.3613 18.3288C14.4681 17.0783 13.3986 16.2999 11.5609 15.0796C9.43719 13.6694 10.8139 12.8943 12.0242 11.6276C12.341 11.2961 17.8447 6.25171 17.9512 5.7941C17.9645 5.73687 17.9769 5.52354 17.8511 5.41089C17.7253 5.29824 17.5397 5.33677 17.4058 5.3674C17.2159 5.41083 14.1915 7.42514 8.33265 11.4103C7.4742 12.0043 6.69664 12.2937 5.99997 12.2786C5.23194 12.2619 3.75458 11.841 2.6563 11.4813C1.30923 11.04 0.238603 10.8067 0.331831 10.0574C0.38039 9.66708 0.913796 9.26791 1.93205 8.85988Z" fill="#8A8A8A"/>
</svg>
