<svg width="32" height="32" viewBox="0 0 32 32" fill="none" xmlns="http://www.w3.org/2000/svg">
<rect x="1.02687" y="0.390152" width="30.4318" height="30.4318" fill="url(#paint0_linear_396_170)" stroke="url(#paint1_linear_396_170)" stroke-width="0.780303"/>
<path d="M17.8422 15.9958C17.8422 21.3827 14.6893 25.7498 10.7999 25.7498C6.91047 25.7498 3.75781 21.384 3.75781 15.9958C3.75781 10.6077 6.91071 6.24219 10.7999 6.24219C14.689 6.24219 17.8422 10.609 17.8422 15.9958ZM25.5677 15.9958C25.5677 21.0669 23.9911 25.1774 22.0465 25.1774C20.1019 25.1774 18.5254 21.0656 18.5254 15.9958C18.5254 10.9261 20.1019 6.81423 22.0465 6.81423C23.9911 6.81423 25.5677 10.9261 25.5677 15.9958ZM28.7275 15.9958C28.7275 20.5392 28.173 24.2221 27.4891 24.2221C26.8052 24.2221 26.2506 20.5379 26.2506 15.9958C26.2506 11.4537 26.8052 7.76949 27.4893 7.76949C28.1735 7.76949 28.7275 11.4527 28.7275 15.9958Z" fill="#8A8A8A"/>
<defs>
<linearGradient id="paint0_linear_396_170" x1="0.636718" y1="0.0149269" x2="38.2618" y2="14.2663" gradientUnits="userSpaceOnUse">
<stop stop-color="white" stop-opacity="0.1"/>
<stop offset="1" stop-color="white" stop-opacity="0.03"/>
</linearGradient>
<linearGradient id="paint1_linear_396_170" x1="1.28697" y1="0.655556" x2="36.6322" y2="18.2506" gradientUnits="userSpaceOnUse">
<stop stop-color="white" stop-opacity="0.2"/>
<stop offset="1" stop-color="white" stop-opacity="0.1"/>
</linearGradient>
</defs>
</svg>
