<svg width="26" height="20" viewBox="0 0 26 20" fill="none" xmlns="http://www.w3.org/2000/svg">
<path d="M14.8422 9.99581C14.8422 15.3827 11.6893 19.7498 7.79988 19.7498C3.91047 19.7498 0.757812 15.384 0.757812 9.99581C0.757812 4.60765 3.91071 0.242188 7.79988 0.242188C11.689 0.242188 14.8422 4.60897 14.8422 9.99581ZM22.5677 9.99581C22.5677 15.0669 20.9911 19.1774 19.0465 19.1774C17.1019 19.1774 15.5254 15.0656 15.5254 9.99581C15.5254 4.92607 17.1019 0.814227 19.0465 0.814227C20.9911 0.814227 22.5677 4.92607 22.5677 9.99581ZM25.7275 9.99581C25.7275 14.5392 25.173 18.2221 24.4891 18.2221C23.8052 18.2221 23.2506 14.5379 23.2506 9.99581C23.2506 5.4537 23.8052 1.76949 24.4893 1.76949C25.1735 1.76949 25.7275 5.45272 25.7275 9.99581Z" fill="#8A8A8A"/>
</svg>

