<svg width="32" height="32" viewBox="0 0 32 32" fill="none" xmlns="http://www.w3.org/2000/svg">
<rect x="0.602066" y="0.390152" width="30.4318" height="30.4318" fill="url(#paint0_linear_396_153)" stroke="url(#paint1_linear_396_153)" stroke-width="0.780303"/>
<path d="M27.4765 7.78555C26.6001 8.18117 25.6717 8.44232 24.7211 8.56059C25.7219 7.94381 26.4713 6.97655 26.8308 5.83744C25.9032 6.39247 24.8752 6.79649 23.7808 7.0215C23.0588 6.22989 22.1021 5.70485 21.0592 5.52792C20.0163 5.35099 18.9456 5.53207 18.0133 6.04304C17.0811 6.55401 16.3395 7.36627 15.9037 8.3537C15.4679 9.34113 15.3623 10.4485 15.6032 11.5037C11.6139 11.3107 8.08015 9.34563 5.7129 6.37747C5.28256 7.12732 5.0581 7.98258 5.0633 8.8526C5.0633 10.5627 5.91188 12.0658 7.19743 12.9488C6.43552 12.924 5.69044 12.7128 5.02429 12.3328V12.3928C5.02385 13.5293 5.4069 14.6309 6.10842 15.5107C6.80995 16.3906 7.78677 16.9945 8.87313 17.2201C8.1692 17.4135 7.43192 17.4425 6.71559 17.3051C7.02393 18.2831 7.62237 19.1381 8.4274 19.7507C9.23243 20.3633 10.2039 20.7029 11.2062 20.7223C9.50862 22.0883 7.41248 22.8297 5.25447 22.8274C4.87408 22.8274 4.49465 22.8044 4.11328 22.7604C6.31345 24.2048 8.87168 24.9715 11.4842 24.9695C20.3143 24.9695 25.1376 17.4731 25.1376 10.9837C25.1376 10.7737 25.1376 10.5637 25.1229 10.3537C26.0651 9.65851 26.8779 8.79542 27.5224 7.80555L27.4765 7.78555Z" fill="#8A8A8A"/>
<defs>
<linearGradient id="paint0_linear_396_153" x1="0.211913" y1="0.0149269" x2="37.837" y2="14.2663" gradientUnits="userSpaceOnUse">
<stop stop-color="white" stop-opacity="0.1"/>
<stop offset="1" stop-color="white" stop-opacity="0.03"/>
</linearGradient>
<linearGradient id="paint1_linear_396_153" x1="0.862166" y1="0.655556" x2="36.2074" y2="18.2506" gradientUnits="userSpaceOnUse">
<stop stop-color="white" stop-opacity="0.2"/>
<stop offset="1" stop-color="white" stop-opacity="0.1"/>
</linearGradient>
</defs>
</svg>
