<svg width="24" height="20" viewBox="0 0 24 20" fill="none" xmlns="http://www.w3.org/2000/svg">
<path d="M23.4765 2.78555C22.6001 3.18117 21.6717 3.44232 20.7211 3.56059C21.7219 2.94381 22.4713 1.97655 22.8308 0.83744C21.9032 1.39247 20.8752 1.79649 19.7808 2.0215C19.0588 1.22989 18.1021 0.704854 17.0592 0.527924C16.0163 0.350995 14.9456 0.532073 14.0133 1.04304C13.0811 1.55401 12.3395 2.36627 11.9037 3.3537C11.4679 4.34113 11.3623 5.44846 11.6032 6.50375C7.61394 6.31074 4.08015 4.34563 1.7129 1.37747C1.28256 2.12732 1.0581 2.98258 1.0633 3.8526C1.0633 5.5627 1.91188 7.06578 3.19743 7.94883C2.43552 7.92396 1.69044 7.71275 1.02429 7.33279V7.3928C1.02385 8.52925 1.4069 9.63086 2.10842 10.5107C2.80995 11.3906 3.78677 11.9945 4.87313 12.2201C4.1692 12.4135 3.43192 12.4425 2.71559 12.3051C3.02393 13.2831 3.62237 14.1381 4.4274 14.7507C5.23243 15.3633 6.20389 15.7029 7.20624 15.7223C5.50862 17.0883 3.41248 17.8297 1.25447 17.8274C0.874077 17.8274 0.494654 17.8044 0.113281 17.7604C2.31345 19.2048 4.87168 19.9715 7.48422 19.9695C16.3143 19.9695 21.1376 12.4731 21.1376 5.98372C21.1376 5.77371 21.1376 5.5637 21.1229 5.35369C22.0651 4.65851 22.8779 3.79542 23.5224 2.80555L23.4765 2.78555Z" fill="#8A8A8A"/>
</svg>
