<svg width="274" height="81" viewBox="0 0 274 81" fill="none" xmlns="http://www.w3.org/2000/svg">
<path fill-rule="evenodd" clip-rule="evenodd" d="M46.0346 31.6302C45.5682 33.8598 43.4956 39.5832 36.885 42.6821L34.2307 39.7192L29.7511 44.1884C27.2025 44.1546 24.6961 43.5361 22.428 42.3816C20.1601 41.227 18.1917 39.5674 16.677 37.5328C17.1527 37.68 17.6441 37.7718 18.1412 37.8064C18.875 37.8197 19.669 37.5526 19.669 36.3299V24.2696C19.6791 23.9597 19.6164 23.6515 19.4854 23.3698C19.3545 23.0882 19.159 22.8407 18.9147 22.6475C18.6703 22.454 18.3838 22.3201 18.078 22.2561C17.7722 22.1921 17.4556 22.1998 17.1534 22.2788C15.0791 22.7533 13.4227 27.8894 13.4227 27.8894C13.3994 25.518 13.8968 23.1702 14.8802 21.009C15.8636 18.8477 17.3095 16.925 19.1173 15.3744C21.4968 13.3317 24.4095 11.998 27.5198 11.5273C25.2549 12.808 23.983 14.8966 23.983 16.6485C23.983 19.4686 25.6944 19.1269 26.2009 18.7122V34.9897C26.2872 35.1937 26.3996 35.3862 26.5353 35.562C26.7614 35.8725 27.0594 36.1249 27.4039 36.298C27.7485 36.4713 28.1298 36.5601 28.516 36.5572C30.2291 36.5572 32.4522 34.6164 32.4522 34.6164V21.4411C32.4522 20.1007 31.4343 18.4816 30.4146 17.9258C30.4146 17.9258 32.3018 17.5941 33.7576 18.7006C34.0312 18.369 34.3218 18.0517 34.6286 17.75C38.0266 14.4404 41.2275 13.4981 43.8935 13.027C43.8935 13.027 39.0463 16.8077 39.0463 21.8807C39.0463 25.653 39.1449 34.8537 39.1449 34.8537C40.9433 36.5772 43.6176 34.0871 46.0346 31.6302Z" fill="white"/>
<path fill-rule="evenodd" clip-rule="evenodd" d="M57.5455 27.8579C57.5455 43.2434 45.0915 55.7159 29.7288 55.7159C14.3661 55.7159 1.91211 43.2434 1.91211 27.8579C1.91211 12.4724 14.3661 0 29.7288 0C45.0915 0 57.5455 12.4724 57.5455 27.8579ZM29.7288 53.7946C44.032 53.7946 55.6271 42.1823 55.6271 27.8579C55.6271 13.5335 44.032 1.92124 29.7288 1.92124C15.4256 1.92124 3.8305 13.5335 3.8305 27.8579C3.8305 42.1823 15.4256 53.7946 29.7288 53.7946Z" fill="white"/>
<path fill-rule="evenodd" clip-rule="evenodd" d="M87.8367 39.362C86.0739 39.362 84.5277 39.3143 83.1983 39.2217C81.8688 39.1289 80.7218 38.9649 79.7571 38.7372C78.7925 38.507 77.9942 38.1973 77.36 37.8056C76.7256 37.4139 76.2209 36.9241 75.8454 36.3339C75.4702 35.7435 75.2032 35.0423 75.0499 34.2296C74.8941 33.4144 74.8174 32.4667 74.8174 31.3816V17.3105H81.2187V29.2984C81.2187 30.0396 81.2451 30.6747 81.2954 31.2069C81.3455 31.7389 81.4514 32.1915 81.6125 32.5673C81.7712 32.9431 82.001 33.245 82.2997 33.4751C82.5984 33.7055 82.9947 33.8855 83.4916 34.0152C83.986 34.1449 84.5939 34.2323 85.3154 34.2746C86.0369 34.317 86.8985 34.3381 87.8975 34.3381H88.4393C89.4384 34.3381 90.3 34.3143 91.0215 34.2667C91.7432 34.219 92.3509 34.1343 92.8453 34.0073C93.3395 33.8828 93.736 33.7028 94.0345 33.4673C94.3332 33.2317 94.5632 32.9299 94.7217 32.5595C94.8803 32.1889 94.986 31.7362 95.039 31.1988C95.089 30.6615 95.1155 30.029 95.1155 29.2984V17.3105H101.517V31.3789C101.517 32.4536 101.445 33.4012 101.3 34.219C101.155 35.0396 100.898 35.7435 100.528 36.3312C100.158 36.9214 99.6561 37.4112 99.0271 37.8029C98.3981 38.1946 97.6025 38.5043 96.6379 38.7347C95.6732 38.9649 94.5208 39.1264 93.1835 39.219C91.8435 39.3143 90.2815 39.3593 88.4974 39.3593H87.8367V39.362Z" fill="white"/>
<path fill-rule="evenodd" clip-rule="evenodd" d="M134.435 39.0909H124.865L112.263 22.7834H112.139V39.0909H105.861V17.291H115.588L128.036 33.6144H128.16V17.291H134.437V39.0909H134.435Z" fill="white"/>
<path fill-rule="evenodd" clip-rule="evenodd" d="M153.303 28.2941C154.406 28.2941 155.286 28.2597 155.941 28.1937C156.597 28.1249 157.093 27.9846 157.432 27.7702C157.773 27.5558 157.995 27.2594 158.098 26.8782C158.201 26.497 158.254 25.994 158.254 25.3667V24.991C158.254 24.3742 158.201 23.8764 158.098 23.4955C157.995 23.1143 157.77 22.823 157.424 22.6192C157.078 22.4153 156.578 22.2805 155.925 22.2117C155.27 22.1427 154.398 22.111 153.303 22.111H145.324V28.2941H153.303ZM164.7 39.0909H158.375V37.3228C158.375 36.6876 158.349 36.1397 158.299 35.6792C158.246 35.2212 158.14 34.8321 157.974 34.5145C157.81 34.1968 157.577 33.9401 157.278 33.7468C156.98 33.5537 156.586 33.4054 156.094 33.2995C155.606 33.1964 155.003 33.1249 154.287 33.0878C153.57 33.0507 152.717 33.0321 151.728 33.0321H145.327V39.0884H138.986V17.291H155.872C157.646 17.291 159.105 17.3995 160.249 17.6192C161.394 17.8389 162.295 18.2069 162.956 18.723C163.616 19.2392 164.071 19.922 164.325 20.7744C164.578 21.624 164.703 22.6749 164.703 23.9268V24.6945C164.703 25.5495 164.637 26.2985 164.502 26.9391C164.367 27.5796 164.15 28.1328 163.852 28.5986C163.553 29.0619 163.167 29.4457 162.691 29.75C162.218 30.0517 161.634 30.282 160.944 30.4382V30.5625C161.705 30.687 162.332 30.8484 162.824 31.039C163.313 31.2323 163.696 31.5182 163.976 31.8993C164.253 32.2805 164.444 32.7781 164.547 33.3948C164.65 34.0115 164.7 34.7977 164.7 35.7585V39.0909Z" fill="white"/>
<path fill-rule="evenodd" clip-rule="evenodd" d="M192.513 39.0909H168.855V17.291H192.143V22.111H175.196V25.8194H191.247V30.372H175.196V34.128H192.513V39.0909Z" fill="white"/>
<path fill-rule="evenodd" clip-rule="evenodd" d="M213.9 30.642L209.463 21.8941H209.307L204.901 30.642H213.9ZM225.113 39.1095H218.201L216.206 35.1975H202.628L200.665 39.1095H193.814L205.503 17.3096H213.359L225.113 39.1095Z" fill="white"/>
<path fill-rule="evenodd" clip-rule="evenodd" d="M248.421 39.1092H227.451V17.3066H233.853V34.0377H248.417V39.1092H248.421Z" fill="white"/>
<path fill-rule="evenodd" clip-rule="evenodd" d="M113.745 76.8379H94.9102V59.5312H113.447V63.3575H99.9556V66.303H112.732V69.9165H99.9556V72.8979H113.742V76.8379H113.745Z" fill="white"/>
<path fill-rule="evenodd" clip-rule="evenodd" d="M222.1 76.8356H203.563V59.8008H221.81V63.5659H208.531V66.4651H221.108V70.0238H208.531V72.9587H222.1V76.8356Z" fill="white"/>
<path fill-rule="evenodd" clip-rule="evenodd" d="M139.28 76.8359H131.66L121.629 63.8908H121.529V76.8359H116.531V59.5293H124.273L134.183 72.4871H134.28V59.5293H139.277V76.8359H139.28Z" fill="white"/>
<path fill-rule="evenodd" clip-rule="evenodd" d="M199.668 76.8359H192.048L182.017 63.8908H181.918V76.8359H176.92V59.5293H184.662L194.571 72.4871H194.669V59.5293H199.665V76.8359H199.668Z" fill="white"/>
<path fill-rule="evenodd" clip-rule="evenodd" d="M154.006 77.0641C152.407 77.0641 151.026 77.0241 149.864 76.9461C148.704 76.8682 147.717 76.7187 146.905 76.4952C146.093 76.2741 145.433 75.9642 144.926 75.5703C144.419 75.1763 144.025 74.6622 143.742 74.0301C143.463 73.398 143.274 72.6311 143.177 71.7314C143.08 70.8317 143.029 69.7656 143.029 68.533V68.0274C143.029 66.7863 143.08 65.7118 143.184 64.8037C143.284 63.8956 143.478 63.1245 143.762 62.4923C144.046 61.8602 144.442 61.3482 144.949 60.9564C145.456 60.5666 146.115 60.2632 146.928 60.0441C147.74 59.827 148.727 59.6796 149.889 59.6058C151.049 59.5321 152.421 59.4941 154.006 59.4941H154.774C156.105 59.4941 157.271 59.5236 158.268 59.5805C159.267 59.6374 160.125 59.7428 160.845 59.8945C161.562 60.0462 162.156 60.2547 162.623 60.5181C163.09 60.7815 163.46 61.1165 163.732 61.5232C164.003 61.9298 164.193 62.4164 164.298 62.9832C164.402 63.5501 164.455 64.2117 164.455 64.9681V65.6338H159.56V65.4231C159.56 65.0291 159.499 64.6983 159.376 64.4307C159.254 64.1632 159.015 63.9503 158.659 63.7902C158.301 63.6301 157.801 63.5163 157.158 63.451C156.513 63.3857 155.663 63.3519 154.609 63.3519H154.184C153.227 63.3519 152.41 63.3689 151.734 63.4004C151.056 63.4342 150.492 63.5058 150.042 63.6154C149.591 63.7271 149.234 63.885 148.971 64.0894C148.708 64.296 148.51 64.574 148.382 64.928C148.252 65.2819 148.169 65.7202 148.131 66.2407C148.096 66.7632 148.076 67.3889 148.076 68.12V68.4277C148.076 69.1419 148.096 69.755 148.131 70.2649C148.168 70.7748 148.252 71.2047 148.382 71.5523C148.513 71.9021 148.708 72.1802 148.971 72.3846C149.234 72.5889 149.591 72.747 150.042 72.8586C150.492 72.9703 151.056 73.0419 151.734 73.0735C152.41 73.1073 153.227 73.122 154.184 73.122H154.609C155.388 73.122 156.058 73.1073 156.623 73.0778C157.187 73.0483 157.66 73.0039 158.046 72.9429C158.431 72.8817 158.741 72.7955 158.973 72.6837C159.204 72.5721 159.381 72.433 159.506 72.2645C159.633 72.096 159.715 71.8978 159.757 71.6724C159.798 71.4469 159.818 71.1814 159.818 70.876V70.3955H153.206V67.0686H164.655V70.914C164.655 71.7441 164.601 72.4731 164.491 73.1009C164.382 73.7288 164.185 74.2724 163.906 74.7275C163.626 75.1847 163.249 75.5619 162.774 75.861C162.299 76.1623 161.698 76.4004 160.965 76.5773C160.235 76.7544 159.36 76.8788 158.341 76.9525C157.323 77.0262 156.134 77.0641 154.78 77.0641H154.006Z" fill="white"/>
<path fill-rule="evenodd" clip-rule="evenodd" d="M173.236 76.868H168.169V59.6963H173.236V76.868Z" fill="white"/>
</svg>

